<?xml version="1.0" encoding="UTF-8"?>
<svg width="567px" height="248px" viewBox="0 0 567 248" version="1.1" xmlns="http://www.w3.org/2000/svg" xmlns:xlink="http://www.w3.org/1999/xlink">
    <title>Black</title>
    <g id="Black" stroke="none" stroke-width="1" fill="none" fill-rule="evenodd">
        <g id="Group" transform="translate(6.645000, 9.018000)">
            <path d="M433.255189,0.982 L357.438336,181.846004 L281.448497,1.21695384 L281.34903,0.982 L240.148105,0.982 L240.148105,227.597137 L240.917892,227.597137 L240.917892,1.75028463 L252.82365,1.75028463 L252.82365,227.597137 L253.594879,227.597137 L253.594879,1.75028463 L255.490516,1.75028463 L265.497752,25.5440452 L265.497752,227.597137 L266.268981,227.597137 L266.268981,27.3746671 L344.431235,213.17126 L344.784415,214.018823 L351.112817,198.922679 L357.461401,214.018823 L363.788362,198.927003 L370.138387,214.018823 L447.699515,28.9833081 L447.699515,227.597137 L448.472185,227.597137 L448.472185,27.1483619 L459.115145,1.75028463 L460.375059,1.75028463 L460.375059,227.597137 L461.143405,227.597137 L461.143405,1.75028463 L473.052045,1.75028463 L473.052045,227.597137 L473.820391,227.597137 L473.820391,0.982 L433.255189,0.982 Z M448.472185,1.75028463 L458.283371,1.75028463 L448.472185,25.1534164 L448.472185,1.75028463 Z M364.204969,197.932413 L446.442484,1.75028463 L447.699515,1.75028463 L447.699515,26.9941284 L370.138387,212.028202 L364.204969,197.932413 Z M357.853502,182.83771 L433.765498,1.75028463 L445.607826,1.75028463 L363.785478,196.936382 L357.853502,182.83771 Z M269.002159,1.75028463 L280.83728,1.75028463 L357.021728,182.83771 L351.111376,196.936382 L269.002159,1.75028463 Z M266.268981,25.3854874 L266.268981,1.75028463 L268.166061,1.75028463 L350.693326,197.929531 L344.784415,212.028202 L266.268981,25.3854874 Z M256.326615,1.75028463 L265.497752,1.75028463 L265.497752,23.5563069 L256.326615,1.75028463 Z M351.530866,197.929531 L357.438336,183.833742 L363.368871,197.932413 L357.461401,212.028202 L351.530866,197.929531 Z M126.242632,227.210833 L114.393095,227.210833 L200.382963,1.50524075 L199.662188,1.22848531 L113.569971,227.210833 L112.831897,227.210833 L107.264633,212.653785 L187.70886,1.50524075 L186.988085,1.22848531 L106.85235,211.57415 L26.4239806,1.22848531 L25.7017643,1.50524075 L106.440067,212.653785 L100.895868,227.210833 L100.160678,227.210833 L13.745553,1.22848531 L13.0305445,1.50524075 L99.3346697,227.210833 L87.48225,227.210833 L1.07433319,1.22848531 L0.355,1.50524075 L86.9517598,227.982 L126.773122,227.982 L213.058507,1.50524075 L212.337733,1.22848531 L126.242632,227.210833 Z M106.855233,213.734861 L112.007331,227.210833 L101.718993,227.210833 L106.855233,213.734861 Z M552.586654,227.597137 L553.355,227.597137 L553.355,1.36686303 L552.586654,1.36686303 L552.586654,227.597137 Z M539.915434,227.597137 L540.682339,227.597137 L540.682339,1.36686303 L539.915434,1.36686303 L539.915434,227.597137 Z M527.238448,227.597137 L528.005353,227.597137 L528.005353,1.36686303 L527.238448,1.36686303 L527.238448,227.597137 Z" id="Fill-1" fill="#1A1919"></path>
            <path d="M433.255189,0.982 L357.438336,181.846004 L281.448497,1.21695384 L281.34903,0.982 L240.148105,0.982 L240.148105,227.597137 L240.917892,227.597137 L240.917892,1.75028463 L252.82365,1.75028463 L252.82365,227.597137 L253.594879,227.597137 L253.594879,1.75028463 L255.490516,1.75028463 L265.497752,25.5440452 L265.497752,227.597137 L266.268981,227.597137 L266.268981,27.3746671 L344.431235,213.17126 L344.784415,214.018823 L351.112817,198.922679 L357.461401,214.018823 L363.788362,198.927003 L370.138387,214.018823 L447.699515,28.9833081 L447.699515,227.597137 L448.472185,227.597137 L448.472185,27.1483619 L459.115145,1.75028463 L460.375059,1.75028463 L460.375059,227.597137 L461.143405,227.597137 L461.143405,1.75028463 L473.052045,1.75028463 L473.052045,227.597137 L473.820391,227.597137 L473.820391,0.982 L433.255189,0.982 Z M448.472185,1.75028463 L458.283371,1.75028463 L448.472185,25.1534164 L448.472185,1.75028463 Z M364.204969,197.932413 L446.442484,1.75028463 L447.699515,1.75028463 L447.699515,26.9941284 L370.138387,212.028202 L364.204969,197.932413 Z M357.853502,182.83771 L433.765498,1.75028463 L445.607826,1.75028463 L363.785478,196.936382 L357.853502,182.83771 Z M269.002159,1.75028463 L280.83728,1.75028463 L357.021728,182.83771 L351.111376,196.936382 L269.002159,1.75028463 Z M266.268981,25.3854874 L266.268981,1.75028463 L268.166061,1.75028463 L350.693326,197.929531 L344.784415,212.028202 L266.268981,25.3854874 Z M256.326615,1.75028463 L265.497752,1.75028463 L265.497752,23.5563069 L256.326615,1.75028463 Z M351.530866,197.929531 L357.438336,183.833742 L363.368871,197.932413 L357.461401,212.028202 L351.530866,197.929531 Z M126.242632,227.210833 L114.393095,227.210833 L200.382963,1.50524075 L199.662188,1.22848531 L113.569971,227.210833 L112.831897,227.210833 L107.264633,212.653785 L187.70886,1.50524075 L186.988085,1.22848531 L106.85235,211.57415 L26.4239806,1.22848531 L25.7017643,1.50524075 L106.440067,212.653785 L100.895868,227.210833 L100.160678,227.210833 L13.745553,1.22848531 L13.0305445,1.50524075 L99.3346697,227.210833 L87.48225,227.210833 L1.07433319,1.22848531 L0.355,1.50524075 L86.9517598,227.982 L126.773122,227.982 L213.058507,1.50524075 L212.337733,1.22848531 L126.242632,227.210833 Z M106.855233,213.734861 L112.007331,227.210833 L101.718993,227.210833 L106.855233,213.734861 Z M552.586654,227.597137 L553.355,227.597137 L553.355,1.36686303 L552.586654,1.36686303 L552.586654,227.597137 Z M539.915434,227.597137 L540.682339,227.597137 L540.682339,1.36686303 L539.915434,1.36686303 L539.915434,227.597137 Z M527.238448,227.597137 L528.005353,227.597137 L528.005353,1.36686303 L527.238448,1.36686303 L527.238448,227.597137 Z" id="Stroke-2" stroke="#1A1919"></path>
        </g>
    </g>
</svg>